<svg xmlns="http://www.w3.org/2000/svg" viewBox="0 0 2943 1240" role="img" aria-label="PEA."><g transform="translate(0 995) scale(1 -1)"><path transform="translate(0 0)" fill="#FFFFFF" d="M497 750Q599 750 671.5 716.5Q744 683 782.0 621.5Q820 560 820 477Q820 394 782.0 332.5Q744 271 671.5 237.5Q599 204 497 204H180V405H480Q518 405 539.0 424.0Q560 443 560 477Q560 512 539.0 530.5Q518 549 480 549H202L318 665V0H60V750Z"/><path transform="translate(827 0)" fill="#FFFFFF" d="M729 464V286H164V464ZM341 375 295 96 197 204H766V0H40L95 375L40 750H761V546H197L295 654Z"/><path transform="translate(1629 0)" fill="#CCFF00" d="M238 126V331H749V126ZM670 750 999 0H724L465 636H531L272 0H-3L326 750Z"/><path transform="translate(2615 0)" fill="#CCFF00" d="M164 -12Q126 -12 94.5 6.0Q63 24 45.0 55.5Q27 87 27 125Q27 164 45.0 195.0Q63 226 94.5 244.0Q126 262 164 262Q203 262 234.0 244.0Q265 226 283.0 195.0Q301 164 301 125Q301 87 283.0 55.5Q265 24 234.0 6.0Q203 -12 164 -12Z"/></g></svg>