<svg xmlns="http://www.w3.org/2000/svg" viewBox="0 0 800 800"><rect width="800" height="800" fill="#000000"/><rect x="80" y="80" width="112" height="112" rx="12" fill="none" stroke="#2E3A00" stroke-width="3"/><rect x="212" y="80" width="112" height="112" rx="12" fill="none" stroke="#2E3A00" stroke-width="3"/><rect x="344" y="80" width="112" height="112" rx="12" fill="none" stroke="#2E3A00" stroke-width="3"/><rect x="476" y="80" width="112" height="112" rx="12" fill="none" stroke="#2E3A00" stroke-width="3"/><rect x="608" y="80" width="112" height="112" rx="12" fill="none" stroke="#2E3A00" stroke-width="3"/><rect x="80" y="212" width="112" height="112" rx="12" fill="none" stroke="#2E3A00" stroke-width="3"/><rect x="212" y="212" width="112" height="112" rx="12" fill="none" stroke="#2E3A00" stroke-width="3"/><rect x="344" y="212" width="112" height="112" rx="12" fill="none" stroke="#2E3A00" stroke-width="3"/><rect x="468" y="204" width="128" height="128" rx="14" fill="#CCFF00" opacity="0.18"/><rect x="476" y="212" width="112" height="112" rx="12" fill="#CCFF00"/><rect x="608" y="212" width="112" height="112" rx="12" fill="none" stroke="#2E3A00" stroke-width="3"/><rect x="80" y="344" width="112" height="112" rx="12" fill="none" stroke="#2E3A00" stroke-width="3"/><rect x="212" y="344" width="112" height="112" rx="12" fill="none" stroke="#2E3A00" stroke-width="3"/><rect x="344" y="344" width="112" height="112" rx="12" fill="none" stroke="#2E3A00" stroke-width="3"/><rect x="476" y="344" width="112" height="112" rx="12" fill="none" stroke="#2E3A00" stroke-width="3"/><rect x="608" y="344" width="112" height="112" rx="12" fill="none" stroke="#2E3A00" stroke-width="3"/><rect x="80" y="476" width="112" height="112" rx="12" fill="none" stroke="#2E3A00" stroke-width="3"/><rect x="212" y="476" width="112" height="112" rx="12" fill="none" stroke="#2E3A00" stroke-width="3"/><rect x="344" y="476" width="112" height="112" rx="12" fill="none" stroke="#2E3A00" stroke-width="3"/><rect x="476" y="476" width="112" height="112" rx="12" fill="none" stroke="#2E3A00" stroke-width="3"/><rect x="608" y="476" width="112" height="112" rx="12" fill="none" stroke="#2E3A00" stroke-width="3"/><rect x="80" y="608" width="112" height="112" rx="12" fill="none" stroke="#2E3A00" stroke-width="3"/><rect x="212" y="608" width="112" height="112" rx="12" fill="none" stroke="#2E3A00" stroke-width="3"/><rect x="344" y="608" width="112" height="112" rx="12" fill="none" stroke="#2E3A00" stroke-width="3"/><rect x="476" y="608" width="112" height="112" rx="12" fill="none" stroke="#2E3A00" stroke-width="3"/><rect x="608" y="608" width="112" height="112" rx="12" fill="none" stroke="#2E3A00" stroke-width="3"/></svg>