<svg xmlns="http://www.w3.org/2000/svg" viewBox="0 0 800 1067"><rect width="800" height="1067" fill="#000000"/><circle cx="266" cy="175" r="3.3" fill="#CCFF00" opacity="0.65"/><circle cx="298" cy="80" r="2.9" fill="#CCFF00" opacity="0.58"/><circle cx="73" cy="113" r="2.6" fill="#767D6C" opacity="0.34"/><circle cx="190" cy="664" r="4.3" fill="#767D6C" opacity="0.55"/><circle cx="762" cy="68" r="4.0" fill="#767D6C" opacity="0.36"/><circle cx="110" cy="337" r="3.9" fill="#CCFF00" opacity="0.69"/><circle cx="506" cy="402" r="3.0" fill="#CCFF00" opacity="0.29"/><circle cx="177" cy="719" r="2.6" fill="#767D6C" opacity="0.69"/><circle cx="364" cy="328" r="3.8" fill="#767D6C" opacity="0.43"/><circle cx="457" cy="559" r="4.1" fill="#767D6C" opacity="0.47"/><circle cx="765" cy="141" r="2.6" fill="#767D6C" opacity="0.36"/><circle cx="392" cy="60" r="3.4" fill="#767D6C" opacity="0.68"/><circle cx="685" cy="342" r="3.5" fill="#767D6C" opacity="0.68"/><circle cx="367" cy="883" r="4.3" fill="#767D6C" opacity="0.75"/><circle cx="66" cy="740" r="3.3" fill="#767D6C" opacity="0.87"/><circle cx="236" cy="416" r="3.4" fill="#CCFF00" opacity="0.6"/><circle cx="148" cy="140" r="1.4" fill="#767D6C" opacity="0.35"/><circle cx="208" cy="422" r="4.1" fill="#CCFF00" opacity="0.59"/><circle cx="438" cy="927" r="3.9" fill="#767D6C" opacity="0.46"/><circle cx="336" cy="388" r="4.1" fill="#767D6C" opacity="0.36"/><circle cx="154" cy="258" r="2.0" fill="#767D6C" opacity="0.69"/><circle cx="220" cy="24" r="2.6" fill="#767D6C" opacity="0.67"/><circle cx="744" cy="729" r="2.9" fill="#767D6C" opacity="0.76"/><circle cx="61" cy="944" r="3.8" fill="#767D6C" opacity="0.85"/><circle cx="318" cy="430" r="1.5" fill="#767D6C" opacity="0.3"/><circle cx="71" cy="234" r="1.7" fill="#767D6C" opacity="0.29"/><circle cx="20" cy="175" r="1.5" fill="#767D6C" opacity="0.27"/><circle cx="684" cy="651" r="1.7" fill="#CCFF00" opacity="0.51"/><circle cx="297" cy="146" r="4.0" fill="#767D6C" opacity="0.6"/><circle cx="388" cy="108" r="1.5" fill="#767D6C" opacity="0.45"/><circle cx="650" cy="186" r="1.3" fill="#767D6C" opacity="0.65"/><circle cx="131" cy="578" r="1.3" fill="#767D6C" opacity="0.98"/><circle cx="676" cy="735" r="2.1" fill="#767D6C" opacity="0.38"/><circle cx="607" cy="567" r="3.8" fill="#767D6C" opacity="0.42"/><circle cx="637" cy="1032" r="4.0" fill="#767D6C" opacity="0.86"/><circle cx="582" cy="253" r="2.9" fill="#767D6C" opacity="0.27"/><circle cx="41" cy="307" r="2.1" fill="#767D6C" opacity="0.97"/><circle cx="360" cy="982" r="4.5" fill="#767D6C" opacity="0.52"/><circle cx="188" cy="253" r="1.8" fill="#CCFF00" opacity="0.72"/><circle cx="704" cy="883" r="2.8" fill="#767D6C" opacity="0.85"/><circle cx="84" cy="698" r="4.2" fill="#767D6C" opacity="0.81"/><circle cx="383" cy="203" r="3.8" fill="#767D6C" opacity="0.85"/><circle cx="758" cy="427" r="2.5" fill="#767D6C" opacity="0.79"/><circle cx="149" cy="150" r="1.7" fill="#767D6C" opacity="0.85"/><circle cx="131" cy="869" r="4.4" fill="#767D6C" opacity="0.51"/><circle cx="437" cy="155" r="1.2" fill="#767D6C" opacity="0.74"/><circle cx="420" cy="979" r="2.6" fill="#767D6C" opacity="0.87"/><circle cx="180" cy="279" r="2.2" fill="#CCFF00" opacity="0.69"/><circle cx="217" cy="450" r="1.6" fill="#767D6C" opacity="0.52"/><circle cx="368" cy="619" r="4.2" fill="#767D6C" opacity="0.94"/><circle cx="401" cy="566" r="2.9" fill="#CCFF00" opacity="0.58"/><circle cx="159" cy="24" r="3.8" fill="#CCFF00" opacity="0.61"/><circle cx="571" cy="592" r="2.3" fill="#767D6C" opacity="0.67"/><circle cx="616" cy="129" r="3.0" fill="#CCFF00" opacity="0.46"/><circle cx="607" cy="541" r="3.1" fill="#767D6C" opacity="0.93"/><circle cx="357" cy="649" r="2.9" fill="#767D6C" opacity="0.77"/><circle cx="364" cy="568" r="2.8" fill="#767D6C" opacity="0.77"/><circle cx="686" cy="988" r="2.1" fill="#767D6C" opacity="0.96"/><circle cx="658" cy="161" r="1.6" fill="#767D6C" opacity="0.3"/><circle cx="203" cy="95" r="3.4" fill="#767D6C" opacity="0.92"/><circle cx="137" cy="755" r="3.4" fill="#CCFF00" opacity="0.91"/><circle cx="755" cy="246" r="4.3" fill="#767D6C" opacity="0.62"/><circle cx="772" cy="875" r="1.7" fill="#767D6C" opacity="0.64"/><circle cx="278" cy="221" r="2.3" fill="#767D6C" opacity="0.26"/><circle cx="441" cy="472" r="1.3" fill="#767D6C" opacity="0.72"/><circle cx="409" cy="86" r="4.5" fill="#767D6C" opacity="0.98"/><circle cx="100" cy="293" r="1.3" fill="#767D6C" opacity="0.45"/><circle cx="118" cy="454" r="4.2" fill="#767D6C" opacity="0.44"/><circle cx="134" cy="964" r="3.1" fill="#767D6C" opacity="0.32"/><circle cx="64" cy="727" r="2.6" fill="#CCFF00" opacity="0.95"/><circle cx="502" cy="843" r="1.5" fill="#767D6C" opacity="0.3"/><circle cx="676" cy="486" r="2.3" fill="#767D6C" opacity="0.95"/><circle cx="224" cy="153" r="2.9" fill="#CCFF00" opacity="0.33"/><circle cx="143" cy="72" r="1.9" fill="#767D6C" opacity="0.48"/><circle cx="597" cy="318" r="2.9" fill="#CCFF00" opacity="0.51"/><circle cx="34" cy="277" r="1.3" fill="#767D6C" opacity="0.66"/><circle cx="164" cy="508" r="4.3" fill="#CCFF00" opacity="0.86"/><circle cx="348" cy="528" r="4.0" fill="#767D6C" opacity="0.63"/><circle cx="543" cy="1029" r="2.3" fill="#767D6C" opacity="0.78"/><circle cx="503" cy="436" r="2.3" fill="#CCFF00" opacity="0.35"/><circle cx="74" cy="781" r="2.0" fill="#CCFF00" opacity="0.31"/><circle cx="659" cy="914" r="3.4" fill="#767D6C" opacity="0.43"/><circle cx="243" cy="492" r="1.7" fill="#767D6C" opacity="0.45"/><circle cx="751" cy="1019" r="3.0" fill="#CCFF00" opacity="0.97"/><circle cx="255" cy="386" r="1.2" fill="#767D6C" opacity="0.61"/><circle cx="402" cy="226" r="2.9" fill="#CCFF00" opacity="0.45"/><circle cx="88" cy="430" r="1.3" fill="#CCFF00" opacity="0.48"/><circle cx="197" cy="621" r="2.9" fill="#767D6C" opacity="0.74"/><circle cx="564" cy="923" r="2.5" fill="#767D6C" opacity="0.99"/><circle cx="134" cy="764" r="3.3" fill="#CCFF00" opacity="0.88"/><circle cx="698" cy="664" r="3.6" fill="#767D6C" opacity="0.35"/><circle cx="418" cy="538" r="4.0" fill="#767D6C" opacity="0.87"/><circle cx="464" cy="937" r="3.5" fill="#767D6C" opacity="0.42"/><circle cx="44" cy="157" r="2.4" fill="#CCFF00" opacity="0.88"/><circle cx="444" cy="665" r="3.3" fill="#767D6C" opacity="0.62"/><circle cx="23" cy="839" r="3.7" fill="#767D6C" opacity="0.65"/><circle cx="521" cy="88" r="3.6" fill="#CCFF00" opacity="0.31"/><circle cx="222" cy="769" r="1.9" fill="#767D6C" opacity="0.98"/><circle cx="395" cy="413" r="2.8" fill="#767D6C" opacity="0.83"/><circle cx="489" cy="680" r="1.5" fill="#CCFF00" opacity="0.44"/><circle cx="585" cy="333" r="3.1" fill="#CCFF00" opacity="0.3"/><circle cx="224" cy="710" r="3.5" fill="#767D6C" opacity="0.47"/><circle cx="413" cy="497" r="2.7" fill="#CCFF00" opacity="0.92"/><circle cx="171" cy="1025" r="4.3" fill="#CCFF00" opacity="0.59"/><circle cx="643" cy="1014" r="2.7" fill="#CCFF00" opacity="0.41"/><circle cx="739" cy="236" r="3.1" fill="#CCFF00" opacity="0.64"/><circle cx="744" cy="156" r="3.9" fill="#767D6C" opacity="0.92"/><circle cx="555" cy="258" r="4.2" fill="#767D6C" opacity="0.27"/><circle cx="23" cy="525" r="2.7" fill="#767D6C" opacity="0.36"/><circle cx="281" cy="345" r="4.0" fill="#CCFF00" opacity="0.81"/><circle cx="658" cy="143" r="4.3" fill="#767D6C" opacity="0.93"/><circle cx="240" cy="402" r="2.5" fill="#767D6C" opacity="0.69"/><circle cx="294" cy="460" r="2.1" fill="#CCFF00" opacity="0.33"/><circle cx="654" cy="313" r="4.3" fill="#CCFF00" opacity="0.45"/><circle cx="408" cy="215" r="2.4" fill="#767D6C" opacity="0.91"/><circle cx="637" cy="668" r="4.2" fill="#767D6C" opacity="0.66"/><circle cx="567" cy="71" r="3.6" fill="#767D6C" opacity="0.81"/><circle cx="510" cy="314" r="1.4" fill="#767D6C" opacity="0.35"/><circle cx="379" cy="373" r="2.2" fill="#767D6C" opacity="0.98"/><circle cx="218" cy="694" r="2.2" fill="#767D6C" opacity="0.55"/><circle cx="147" cy="186" r="1.9" fill="#767D6C" opacity="0.62"/><circle cx="187" cy="951" r="4.5" fill="#767D6C" opacity="0.35"/><circle cx="166" cy="113" r="2.3" fill="#CCFF00" opacity="0.43"/><circle cx="216" cy="605" r="4.1" fill="#767D6C" opacity="0.56"/><circle cx="335" cy="558" r="2.4" fill="#767D6C" opacity="0.3"/><circle cx="231" cy="1014" r="1.6" fill="#767D6C" opacity="0.72"/><circle cx="676" cy="242" r="2.1" fill="#CCFF00" opacity="0.55"/><circle cx="359" cy="1000" r="4.0" fill="#767D6C" opacity="0.27"/><circle cx="45" cy="749" r="4.2" fill="#767D6C" opacity="0.69"/><circle cx="20" cy="422" r="4.3" fill="#767D6C" opacity="0.89"/><circle cx="759" cy="275" r="1.6" fill="#CCFF00" opacity="0.64"/><circle cx="538" cy="987" r="3.6" fill="#767D6C" opacity="0.82"/><circle cx="368" cy="586" r="1.3" fill="#767D6C" opacity="0.42"/><circle cx="719" cy="683" r="2.2" fill="#CCFF00" opacity="0.44"/><circle cx="504" cy="737" r="1.6" fill="#CCFF00" opacity="0.64"/><circle cx="463" cy="419" r="1.9" fill="#767D6C" opacity="0.26"/><circle cx="249" cy="493" r="4.4" fill="#767D6C" opacity="0.91"/><circle cx="381" cy="261" r="2.0" fill="#767D6C" opacity="0.78"/><circle cx="254" cy="42" r="2.8" fill="#767D6C" opacity="0.57"/><circle cx="216" cy="705" r="4.3" fill="#CCFF00" opacity="0.28"/><circle cx="277" cy="452" r="3.5" fill="#CCFF00" opacity="0.85"/><circle cx="582" cy="539" r="1.9" fill="#767D6C" opacity="0.48"/><circle cx="643" cy="257" r="1.9" fill="#767D6C" opacity="0.47"/><circle cx="743" cy="529" r="1.8" fill="#CCFF00" opacity="0.56"/><circle cx="526" cy="994" r="1.7" fill="#767D6C" opacity="0.41"/><circle cx="760" cy="166" r="1.4" fill="#CCFF00" opacity="0.54"/><circle cx="703" cy="927" r="3.6" fill="#767D6C" opacity="0.95"/><circle cx="270" cy="211" r="4.3" fill="#767D6C" opacity="0.27"/><circle cx="525" cy="409" r="2.4" fill="#767D6C" opacity="0.38"/><circle cx="22" cy="307" r="2.4" fill="#767D6C" opacity="0.34"/><circle cx="753" cy="233" r="2.4" fill="#767D6C" opacity="0.87"/><circle cx="349" cy="71" r="2.8" fill="#767D6C" opacity="0.94"/><circle cx="167" cy="394" r="4.2" fill="#CCFF00" opacity="0.56"/><circle cx="637" cy="807" r="1.3" fill="#CCFF00" opacity="0.3"/><circle cx="719" cy="284" r="3.7" fill="#767D6C" opacity="0.5"/><circle cx="227" cy="1004" r="3.2" fill="#CCFF00" opacity="0.79"/><circle cx="261" cy="303" r="1.2" fill="#767D6C" opacity="0.94"/><circle cx="502" cy="989" r="1.3" fill="#CCFF00" opacity="0.61"/><circle cx="747" cy="1000" r="2.5" fill="#CCFF00" opacity="0.57"/><circle cx="395" cy="973" r="1.8" fill="#767D6C" opacity="0.8"/><circle cx="645" cy="814" r="3.2" fill="#767D6C" opacity="0.49"/><circle cx="295" cy="823" r="1.5" fill="#CCFF00" opacity="0.81"/><circle cx="208" cy="86" r="1.3" fill="#767D6C" opacity="0.49"/><circle cx="765" cy="927" r="4.5" fill="#CCFF00" opacity="0.31"/><circle cx="93" cy="532" r="3.5" fill="#767D6C" opacity="0.43"/><circle cx="337" cy="657" r="3.4" fill="#767D6C" opacity="0.89"/><circle cx="525" cy="144" r="4.0" fill="#767D6C" opacity="0.68"/><circle cx="303" cy="778" r="1.9" fill="#CCFF00" opacity="0.43"/><circle cx="137" cy="928" r="3.1" fill="#767D6C" opacity="0.55"/><circle cx="774" cy="541" r="2.0" fill="#767D6C" opacity="0.74"/><circle cx="773" cy="125" r="2.8" fill="#767D6C" opacity="0.88"/><circle cx="715" cy="61" r="2.2" fill="#CCFF00" opacity="0.39"/><circle cx="759" cy="619" r="4.3" fill="#767D6C" opacity="0.9"/><circle cx="361" cy="287" r="3.8" fill="#767D6C" opacity="0.33"/><circle cx="473" cy="657" r="1.9" fill="#767D6C" opacity="0.36"/><circle cx="175" cy="282" r="3.2" fill="#767D6C" opacity="0.4"/><circle cx="29" cy="356" r="3.4" fill="#CCFF00" opacity="0.48"/><circle cx="175" cy="837" r="3.0" fill="#CCFF00" opacity="0.33"/><circle cx="320" cy="585" r="3.3" fill="#CCFF00" opacity="0.37"/><circle cx="549" cy="441" r="2.1" fill="#767D6C" opacity="0.96"/><circle cx="257" cy="602" r="2.4" fill="#767D6C" opacity="0.9"/><circle cx="777" cy="394" r="1.9" fill="#767D6C" opacity="0.4"/><circle cx="24" cy="946" r="2.6" fill="#767D6C" opacity="0.55"/><circle cx="691" cy="493" r="1.7" fill="#CCFF00" opacity="0.66"/><circle cx="507" cy="954" r="1.5" fill="#767D6C" opacity="0.53"/><circle cx="403" cy="170" r="2.1" fill="#767D6C" opacity="0.94"/><circle cx="103" cy="524" r="3.9" fill="#767D6C" opacity="0.4"/><circle cx="116" cy="989" r="4.4" fill="#767D6C" opacity="0.29"/><circle cx="724" cy="418" r="4.2" fill="#767D6C" opacity="0.87"/><circle cx="142" cy="827" r="1.9" fill="#767D6C" opacity="0.88"/><circle cx="650" cy="208" r="1.9" fill="#767D6C" opacity="0.64"/><circle cx="312" cy="146" r="2.0" fill="#767D6C" opacity="0.92"/><circle cx="51" cy="598" r="3.7" fill="#CCFF00" opacity="0.88"/><circle cx="109" cy="636" r="3.0" fill="#767D6C" opacity="0.48"/><circle cx="339" cy="618" r="2.6" fill="#767D6C" opacity="0.59"/><circle cx="353" cy="44" r="3.2" fill="#767D6C" opacity="0.43"/><circle cx="600" cy="821" r="2.7" fill="#CCFF00" opacity="0.6"/><circle cx="101" cy="152" r="2.6" fill="#CCFF00" opacity="0.58"/><circle cx="408" cy="62" r="3.3" fill="#CCFF00" opacity="0.8"/><circle cx="611" cy="545" r="1.4" fill="#767D6C" opacity="0.53"/><circle cx="743" cy="160" r="4.0" fill="#767D6C" opacity="0.8"/><circle cx="639" cy="219" r="4.4" fill="#767D6C" opacity="0.97"/><circle cx="716" cy="190" r="3.8" fill="#767D6C" opacity="0.3"/><circle cx="287" cy="797" r="1.7" fill="#767D6C" opacity="0.46"/><circle cx="640" cy="167" r="2.9" fill="#767D6C" opacity="0.41"/><circle cx="220" cy="540" r="2.3" fill="#CCFF00" opacity="0.39"/><circle cx="143" cy="982" r="3.4" fill="#767D6C" opacity="0.38"/><circle cx="617" cy="138" r="3.0" fill="#767D6C" opacity="0.52"/><circle cx="683" cy="590" r="3.1" fill="#767D6C" opacity="0.33"/><circle cx="775" cy="667" r="2.5" fill="#767D6C" opacity="0.45"/><circle cx="773" cy="613" r="2.4" fill="#767D6C" opacity="0.58"/><circle cx="154" cy="784" r="1.4" fill="#767D6C" opacity="0.44"/><circle cx="506" cy="1031" r="3.1" fill="#767D6C" opacity="0.48"/><circle cx="21" cy="55" r="1.7" fill="#767D6C" opacity="0.57"/><circle cx="410" cy="940" r="1.6" fill="#CCFF00" opacity="0.74"/><circle cx="37" cy="23" r="2.4" fill="#CCFF00" opacity="0.52"/><circle cx="190" cy="619" r="3.1" fill="#CCFF00" opacity="0.72"/><circle cx="381" cy="158" r="4.3" fill="#CCFF00" opacity="0.36"/><circle cx="93" cy="675" r="4.1" fill="#767D6C" opacity="0.55"/><circle cx="221" cy="32" r="3.3" fill="#767D6C" opacity="0.51"/><circle cx="511" cy="476" r="4.3" fill="#767D6C" opacity="0.44"/><circle cx="707" cy="65" r="3.0" fill="#767D6C" opacity="0.43"/><circle cx="64" cy="820" r="1.2" fill="#767D6C" opacity="0.96"/><circle cx="128" cy="225" r="3.2" fill="#767D6C" opacity="0.73"/><circle cx="638" cy="199" r="2.2" fill="#767D6C" opacity="0.29"/><circle cx="696" cy="824" r="3.6" fill="#CCFF00" opacity="0.88"/><circle cx="586" cy="498" r="3.6" fill="#767D6C" opacity="0.42"/><circle cx="100" cy="259" r="1.3" fill="#767D6C" opacity="0.81"/><circle cx="548" cy="888" r="3.5" fill="#CCFF00" opacity="0.67"/><circle cx="351" cy="830" r="2.9" fill="#CCFF00" opacity="0.73"/><circle cx="754" cy="243" r="4.1" fill="#CCFF00" opacity="0.45"/><circle cx="199" cy="784" r="4.3" fill="#767D6C" opacity="0.5"/><circle cx="689" cy="357" r="2.0" fill="#767D6C" opacity="0.72"/><circle cx="547" cy="703" r="4.4" fill="#767D6C" opacity="0.88"/><circle cx="550" cy="901" r="2.6" fill="#767D6C" opacity="0.68"/><circle cx="254" cy="238" r="3.3" fill="#CCFF00" opacity="0.93"/><circle cx="130" cy="48" r="1.6" fill="#767D6C" opacity="0.51"/><circle cx="128" cy="50" r="1.3" fill="#767D6C" opacity="0.73"/><circle cx="550" cy="777" r="1.4" fill="#767D6C" opacity="0.52"/><circle cx="641" cy="862" r="4.1" fill="#CCFF00" opacity="0.9"/></svg>