<svg xmlns="http://www.w3.org/2000/svg" viewBox="0 0 800 1067"><rect width="800" height="1067" fill="#000000"/><rect x="60" y="60" width="630" height="46" rx="8" fill="#2E3A00"/><rect x="60" y="128" width="544" height="18" rx="8" fill="#CCFF00"/><rect x="60" y="180" width="477" height="18" rx="8" fill="#CCFF00"/><rect x="60" y="212" width="525" height="10" rx="5" fill="#767D6C"/><rect x="60" y="256" width="400" height="18" rx="8" fill="#2E3A00"/><rect x="60" y="288" width="629" height="18" rx="8" fill="#2E3A00"/><rect x="60" y="328" width="455" height="46" rx="8" fill="#767D6C"/><rect x="60" y="396" width="407" height="46" rx="8" fill="#CCFF00"/><rect x="60" y="476" width="678" height="30" rx="8" fill="#2E3A00"/><rect x="60" y="520" width="472" height="30" rx="8" fill="#767D6C"/><rect x="60" y="564" width="504" height="10" rx="5" fill="#2E3A00"/><rect x="60" y="588" width="677" height="10" rx="5" fill="#CCFF00"/><rect x="60" y="612" width="514" height="46" rx="8" fill="#2E3A00"/><rect x="60" y="692" width="408" height="18" rx="8" fill="#767D6C"/><rect x="60" y="732" width="418" height="10" rx="5" fill="#2E3A00"/><rect x="60" y="756" width="529" height="10" rx="5" fill="#CCFF00"/><rect x="60" y="788" width="543" height="18" rx="8" fill="#767D6C"/><rect x="60" y="840" width="506" height="18" rx="8" fill="#767D6C"/><rect x="60" y="872" width="691" height="10" rx="5" fill="#CCFF00"/><rect x="60" y="916" width="440" height="30" rx="8" fill="#767D6C"/><rect x="60" y="980" width="427" height="10" rx="5" fill="#CCFF00"/></svg>