<svg xmlns="http://www.w3.org/2000/svg" viewBox="0 0 800 1000"><rect width="800" height="1000" fill="#000000"/><circle cx="60" cy="60" r="1.5" fill="#CCFF00"/><circle cx="145" cy="60" r="1.5" fill="#CCFF00"/><circle cx="230" cy="60" r="1.5" fill="#CCFF00"/><circle cx="315" cy="60" r="1.5" fill="#CCFF00"/><circle cx="400" cy="60" r="1.5" fill="#CCFF00"/><circle cx="485" cy="60" r="1.5" fill="#CCFF00"/><circle cx="570" cy="60" r="1.5" fill="#CCFF00"/><circle cx="655" cy="60" r="1.5" fill="#CCFF00"/><circle cx="740" cy="60" r="1.5" fill="#CCFF00"/><circle cx="60" cy="140" r="3.4" fill="#CCFF00"/><circle cx="145" cy="140" r="3.4" fill="#CCFF00"/><circle cx="230" cy="140" r="3.4" fill="#CCFF00"/><circle cx="315" cy="140" r="3.4" fill="#CCFF00"/><circle cx="400" cy="140" r="3.4" fill="#CCFF00"/><circle cx="485" cy="140" r="3.4" fill="#CCFF00"/><circle cx="570" cy="140" r="3.4" fill="#CCFF00"/><circle cx="655" cy="140" r="3.4" fill="#CCFF00"/><circle cx="740" cy="140" r="3.4" fill="#CCFF00"/><circle cx="60" cy="220" r="5.3" fill="#CCFF00"/><circle cx="145" cy="220" r="5.3" fill="#CCFF00"/><circle cx="230" cy="220" r="5.3" fill="#CCFF00"/><circle cx="315" cy="220" r="5.3" fill="#CCFF00"/><circle cx="400" cy="220" r="5.3" fill="#CCFF00"/><circle cx="485" cy="220" r="5.3" fill="#CCFF00"/><circle cx="570" cy="220" r="5.3" fill="#CCFF00"/><circle cx="655" cy="220" r="5.3" fill="#CCFF00"/><circle cx="740" cy="220" r="5.3" fill="#CCFF00"/><circle cx="60" cy="300" r="7.2" fill="#CCFF00"/><circle cx="145" cy="300" r="7.2" fill="#CCFF00"/><circle cx="230" cy="300" r="7.2" fill="#CCFF00"/><circle cx="315" cy="300" r="7.2" fill="#CCFF00"/><circle cx="400" cy="300" r="7.2" fill="#CCFF00"/><circle cx="485" cy="300" r="7.2" fill="#CCFF00"/><circle cx="570" cy="300" r="7.2" fill="#CCFF00"/><circle cx="655" cy="300" r="7.2" fill="#CCFF00"/><circle cx="740" cy="300" r="7.2" fill="#CCFF00"/><circle cx="60" cy="380" r="9.1" fill="#CCFF00"/><circle cx="145" cy="380" r="9.1" fill="#CCFF00"/><circle cx="230" cy="380" r="9.1" fill="#CCFF00"/><circle cx="315" cy="380" r="9.1" fill="#CCFF00"/><circle cx="400" cy="380" r="9.1" fill="#CCFF00"/><circle cx="485" cy="380" r="9.1" fill="#CCFF00"/><circle cx="570" cy="380" r="9.1" fill="#CCFF00"/><circle cx="655" cy="380" r="9.1" fill="#CCFF00"/><circle cx="740" cy="380" r="9.1" fill="#CCFF00"/><circle cx="60" cy="460" r="11.0" fill="#CCFF00"/><circle cx="145" cy="460" r="11.0" fill="#CCFF00"/><circle cx="230" cy="460" r="11.0" fill="#CCFF00"/><circle cx="315" cy="460" r="11.0" fill="#CCFF00"/><circle cx="400" cy="460" r="11.0" fill="#CCFF00"/><circle cx="485" cy="460" r="11.0" fill="#CCFF00"/><circle cx="570" cy="460" r="11.0" fill="#CCFF00"/><circle cx="655" cy="460" r="11.0" fill="#CCFF00"/><circle cx="740" cy="460" r="11.0" fill="#CCFF00"/><circle cx="60" cy="540" r="12.9" fill="#CCFF00"/><circle cx="145" cy="540" r="12.9" fill="#CCFF00"/><circle cx="230" cy="540" r="12.9" fill="#CCFF00"/><circle cx="315" cy="540" r="12.9" fill="#CCFF00"/><circle cx="400" cy="540" r="12.9" fill="#CCFF00"/><circle cx="485" cy="540" r="12.9" fill="#CCFF00"/><circle cx="570" cy="540" r="12.9" fill="#CCFF00"/><circle cx="655" cy="540" r="12.9" fill="#CCFF00"/><circle cx="740" cy="540" r="12.9" fill="#CCFF00"/><circle cx="60" cy="620" r="14.8" fill="#CCFF00"/><circle cx="145" cy="620" r="14.8" fill="#CCFF00"/><circle cx="230" cy="620" r="14.8" fill="#CCFF00"/><circle cx="315" cy="620" r="14.8" fill="#CCFF00"/><circle cx="400" cy="620" r="14.8" fill="#CCFF00"/><circle cx="485" cy="620" r="14.8" fill="#CCFF00"/><circle cx="570" cy="620" r="14.8" fill="#CCFF00"/><circle cx="655" cy="620" r="14.8" fill="#CCFF00"/><circle cx="740" cy="620" r="14.8" fill="#CCFF00"/><circle cx="60" cy="700" r="16.7" fill="#CCFF00"/><circle cx="145" cy="700" r="16.7" fill="#CCFF00"/><circle cx="230" cy="700" r="16.7" fill="#CCFF00"/><circle cx="315" cy="700" r="16.7" fill="#CCFF00"/><circle cx="400" cy="700" r="16.7" fill="#CCFF00"/><circle cx="485" cy="700" r="16.7" fill="#CCFF00"/><circle cx="570" cy="700" r="16.7" fill="#CCFF00"/><circle cx="655" cy="700" r="16.7" fill="#CCFF00"/><circle cx="740" cy="700" r="16.7" fill="#CCFF00"/><circle cx="60" cy="780" r="18.6" fill="#CCFF00"/><circle cx="145" cy="780" r="18.6" fill="#CCFF00"/><circle cx="230" cy="780" r="18.6" fill="#CCFF00"/><circle cx="315" cy="780" r="18.6" fill="#CCFF00"/><circle cx="400" cy="780" r="18.6" fill="#CCFF00"/><circle cx="485" cy="780" r="18.6" fill="#CCFF00"/><circle cx="570" cy="780" r="18.6" fill="#CCFF00"/><circle cx="655" cy="780" r="18.6" fill="#CCFF00"/><circle cx="740" cy="780" r="18.6" fill="#CCFF00"/><circle cx="60" cy="860" r="20.5" fill="#CCFF00"/><circle cx="145" cy="860" r="20.5" fill="#CCFF00"/><circle cx="230" cy="860" r="20.5" fill="#CCFF00"/><circle cx="315" cy="860" r="20.5" fill="#CCFF00"/><circle cx="400" cy="860" r="20.5" fill="#CCFF00"/><circle cx="485" cy="860" r="20.5" fill="#CCFF00"/><circle cx="570" cy="860" r="20.5" fill="#CCFF00"/><circle cx="655" cy="860" r="20.5" fill="#CCFF00"/><circle cx="740" cy="860" r="20.5" fill="#CCFF00"/><circle cx="60" cy="940" r="22.4" fill="#CCFF00"/><circle cx="145" cy="940" r="22.4" fill="#CCFF00"/><circle cx="230" cy="940" r="22.4" fill="#CCFF00"/><circle cx="315" cy="940" r="22.4" fill="#CCFF00"/><circle cx="400" cy="940" r="22.4" fill="#CCFF00"/><circle cx="485" cy="940" r="22.4" fill="#CCFF00"/><circle cx="570" cy="940" r="22.4" fill="#CCFF00"/><circle cx="655" cy="940" r="22.4" fill="#CCFF00"/><circle cx="740" cy="940" r="22.4" fill="#CCFF00"/></svg>