<svg xmlns="http://www.w3.org/2000/svg" viewBox="0 0 800 500"><rect width="800" height="500" fill="#000000"/><path d="M -20 200 q 55 -90 110 0 q 55 90 110 0 q 55 -90 110 0 q 55 90 110 0 q 55 -90 110 0 q 55 90 110 0 q 55 -90 110 0 q 55 90 110 0" fill="none" stroke="#CCFF00" stroke-width="8" opacity="1"/><path d="M -20 270 q 55 -90 110 0 q 55 90 110 0 q 55 -90 110 0 q 55 90 110 0 q 55 -90 110 0 q 55 90 110 0 q 55 -90 110 0 q 55 90 110 0" fill="none" stroke="#FFFFFF" stroke-width="8" opacity="0.7"/><path d="M -20 340 q 55 -90 110 0 q 55 90 110 0 q 55 -90 110 0 q 55 90 110 0 q 55 -90 110 0 q 55 90 110 0 q 55 -90 110 0 q 55 90 110 0" fill="none" stroke="#2E3A00" stroke-width="8" opacity="1"/></svg>