<svg xmlns="http://www.w3.org/2000/svg" viewBox="0 0 800 800"><rect width="800" height="800" fill="#000000"/><circle cx="400" cy="400" r="260" fill="none" stroke="#767D6C" stroke-width="4"/><line x1="400" y1="60" x2="400" y2="740" stroke="#2E3A00" stroke-width="4"/><line x1="60" y1="400" x2="740" y2="400" stroke="#2E3A00" stroke-width="4"/><line x1="700" y1="400" x2="730" y2="400" stroke="#767D6C" stroke-width="4"/><line x1="660" y1="550" x2="686" y2="565" stroke="#767D6C" stroke-width="4"/><line x1="550" y1="660" x2="565" y2="686" stroke="#767D6C" stroke-width="4"/><line x1="400" y1="700" x2="400" y2="730" stroke="#767D6C" stroke-width="4"/><line x1="250" y1="660" x2="235" y2="686" stroke="#767D6C" stroke-width="4"/><line x1="140" y1="550" x2="114" y2="565" stroke="#767D6C" stroke-width="4"/><line x1="100" y1="400" x2="70" y2="400" stroke="#767D6C" stroke-width="4"/><line x1="140" y1="250" x2="114" y2="235" stroke="#767D6C" stroke-width="4"/><line x1="250" y1="140" x2="235" y2="114" stroke="#767D6C" stroke-width="4"/><line x1="400" y1="100" x2="400" y2="70" stroke="#767D6C" stroke-width="4"/><line x1="550" y1="140" x2="565" y2="114" stroke="#767D6C" stroke-width="4"/><line x1="660" y1="250" x2="686" y2="235" stroke="#767D6C" stroke-width="4"/><circle cx="400" cy="400" r="28" fill="#CCFF00"/></svg>