<svg xmlns="http://www.w3.org/2000/svg" viewBox="0 0 800 800"><rect width="800" height="800" fill="#000000"/><line x1="400" y1="400" x2="740" y2="400" stroke="#CCFF00" stroke-width="10" stroke-linecap="round" opacity="1"/><line x1="400" y1="400" x2="626" y2="482" stroke="#FFFFFF" stroke-width="10" stroke-linecap="round" opacity="0.5"/><line x1="400" y1="400" x2="660" y2="619" stroke="#CCFF00" stroke-width="10" stroke-linecap="round" opacity="1"/><line x1="400" y1="400" x2="520" y2="608" stroke="#FFFFFF" stroke-width="10" stroke-linecap="round" opacity="0.5"/><line x1="400" y1="400" x2="459" y2="735" stroke="#CCFF00" stroke-width="10" stroke-linecap="round" opacity="1"/><line x1="400" y1="400" x2="358" y2="636" stroke="#FFFFFF" stroke-width="10" stroke-linecap="round" opacity="0.5"/><line x1="400" y1="400" x2="230" y2="694" stroke="#CCFF00" stroke-width="10" stroke-linecap="round" opacity="1"/><line x1="400" y1="400" x2="216" y2="554" stroke="#FFFFFF" stroke-width="10" stroke-linecap="round" opacity="0.5"/><line x1="400" y1="400" x2="81" y2="516" stroke="#CCFF00" stroke-width="10" stroke-linecap="round" opacity="1"/><line x1="400" y1="400" x2="160" y2="400" stroke="#FFFFFF" stroke-width="10" stroke-linecap="round" opacity="0.5"/><line x1="400" y1="400" x2="81" y2="284" stroke="#CCFF00" stroke-width="10" stroke-linecap="round" opacity="1"/><line x1="400" y1="400" x2="216" y2="246" stroke="#FFFFFF" stroke-width="10" stroke-linecap="round" opacity="0.5"/><line x1="400" y1="400" x2="230" y2="106" stroke="#CCFF00" stroke-width="10" stroke-linecap="round" opacity="1"/><line x1="400" y1="400" x2="358" y2="164" stroke="#FFFFFF" stroke-width="10" stroke-linecap="round" opacity="0.5"/><line x1="400" y1="400" x2="459" y2="65" stroke="#CCFF00" stroke-width="10" stroke-linecap="round" opacity="1"/><line x1="400" y1="400" x2="520" y2="192" stroke="#FFFFFF" stroke-width="10" stroke-linecap="round" opacity="0.5"/><line x1="400" y1="400" x2="660" y2="181" stroke="#CCFF00" stroke-width="10" stroke-linecap="round" opacity="1"/><line x1="400" y1="400" x2="626" y2="318" stroke="#FFFFFF" stroke-width="10" stroke-linecap="round" opacity="0.5"/><circle cx="400" cy="400" r="46" fill="#000000" stroke="#CCFF00" stroke-width="8"/></svg>